<svg width="400" height="400" viewBox="0 0 400 400" fill="none" xmlns="http://www.w3.org/2000/svg">
<path d="M264.528 238.75L264.453 208.556C264.444 206.462 263.391 204.531 261.681 203.471C259.969 202.418 257.863 202.406 256.141 203.44L231.475 218.253C228.8 219.859 227.863 223.459 229.378 226.293C229.613 226.734 229.897 227.128 230.213 227.478C231.935 229.375 234.71 229.871 236.966 228.515L243.919 224.34C239.706 232.875 225.769 255.153 195.222 254.54C158.278 253.793 146.772 220.512 146.306 219.115C145.294 216.04 142.135 214.409 139.228 215.465C136.319 216.528 134.778 219.887 135.785 222.965C135.856 223.19 139.775 234.768 149.897 245.909C159.147 256.09 173.591 265.906 195.013 266.337C230.369 267.049 247.575 241.518 253.375 230.44L253.397 238.784C253.403 242.043 255.9 244.681 258.978 244.668C262.053 244.659 264.541 242.009 264.531 238.756L264.528 238.75Z" fill="url(#paint0_linear_655_18)" stroke="url(#paint1_linear_655_18)" stroke-width="0.5" stroke-miterlimit="10"/>
<path d="M135.472 161.25L135.547 191.443C135.556 193.537 136.609 195.468 138.319 196.528C140.031 197.581 142.138 197.593 143.859 196.559L168.525 181.746C171.2 180.14 172.138 176.54 170.622 173.706C170.388 173.265 170.103 172.871 169.788 172.521C168.066 170.625 165.291 170.128 163.034 171.484L156.081 175.659C160.294 167.125 174.231 144.846 204.778 145.459C241.722 146.206 253.228 179.487 253.694 180.884C254.706 183.959 257.866 185.59 260.772 184.534C263.681 183.471 265.222 180.112 264.216 177.034C264.144 176.809 260.225 165.231 250.103 154.09C240.853 143.909 226.409 134.093 204.988 133.662C169.631 132.95 152.425 158.481 146.625 169.559L146.603 161.215C146.597 157.956 144.1 155.318 141.022 155.331C137.947 155.34 135.459 157.99 135.469 161.243L135.472 161.25Z" fill="url(#paint2_linear_655_18)" stroke="url(#paint3_linear_655_18)" stroke-width="0.5" stroke-miterlimit="10"/>
<path d="M323.387 147.647C317.984 138.45 328.012 125.412 327.094 114.265C324.634 97.0371 306.416 84.5403 293.903 74.2371C290.131 71.7403 286.028 70.2246 281.772 70.1309C277.04 69.8746 272.05 71.7403 267.153 73.5996C260.744 76.034 254.469 78.4621 249.112 76.1559C239.187 71.4746 237.953 58.0309 230.378 51.0027L229.294 49.959C222.897 44.5715 212.384 44.4309 203.084 44.609C201.778 44.634 200.497 44.6652 199.25 44.6902C188.625 45.0684 176.74 44.3215 168.1 51.1309C159.55 58.1152 157.365 73.4871 147.79 77.7434C142.09 80.2903 136.081 78.5496 130.119 76.9153C124.519 74.8496 119.181 74.034 113.694 74.5465C99.3499 74.734 68.0655 106.603 69.4936 121.372C69.8092 128.453 73.6592 135.115 75.5561 141.809C81.6405 158.79 60.6217 162.206 51.3092 171.062C45.2342 176.315 43.5561 188.8 43.7592 201.206L43.7717 201.868C43.9592 210.428 45.0186 218.89 46.1405 224.846C49.5467 241.081 68.678 240.628 76.6092 252.347C82.0092 261.547 71.9874 274.584 72.9061 285.728C75.3655 302.959 93.5811 315.456 106.097 325.759C109.865 328.259 113.969 329.772 118.228 329.872C122.953 330.122 127.94 328.262 132.844 326.403C139.253 323.968 145.525 321.537 150.887 323.84C160.812 328.522 162.04 341.965 169.619 348.997L170.703 350.037C176.912 355.275 187.015 355.559 196.115 355.406L197.887 355.372C198.859 355.35 199.812 355.328 200.747 355.312C211.369 354.928 223.256 355.678 231.897 348.868C240.444 341.884 242.628 326.515 252.206 322.256C257.903 319.709 263.909 321.45 269.872 323.084C275.478 325.147 280.819 325.965 286.297 325.45C300.647 325.265 331.931 293.393 330.494 278.628C330.181 271.547 326.334 264.884 324.434 258.187C318.347 241.206 339.372 237.793 348.678 228.931C354.769 223.665 356.444 211.118 356.228 198.672L356.219 198.209C356.037 189.622 354.975 181.122 353.853 175.147C350.44 158.909 331.312 159.362 323.381 147.647H323.387ZM321.828 201.125C321.812 210.831 320.315 220.59 315.49 224.603C308.103 231.372 291.662 233.718 296.153 247.05C297.534 252.3 300.434 257.55 300.572 263.075C301.475 274.609 276.606 298.99 265.415 298.922C261.137 299.24 256.984 298.525 252.647 296.831C248.022 295.468 243.369 294.022 238.887 295.922C231.356 299.1 229.425 311.05 222.653 316.365C215.819 321.547 206.562 320.784 198.275 320.925C197.544 320.925 196.8 320.925 196.044 320.931H194.659C187.562 320.912 179.69 320.543 174.928 316.365L174.1 315.537C168.297 309.94 167.537 299.443 159.872 295.643C155.725 293.768 150.8 295.572 145.765 297.372C141.915 298.75 137.997 300.128 134.319 299.859C131 299.718 127.825 298.478 124.922 296.475C115.319 288.256 101.3 278.24 99.6405 264.772C99.0905 256.068 107.1 246.053 103.025 238.8C97.0186 229.543 82.0967 229.615 79.6811 216.906C78.8967 212.243 78.1936 205.631 78.178 198.956V198.44C78.2061 188.762 79.6999 179.056 84.5124 175.05C91.9061 168.284 108.34 165.934 103.853 152.603C102.472 147.356 99.5717 142.103 99.4311 136.578C98.5342 125.043 123.4 100.662 134.587 100.728C138.872 100.409 143.022 101.125 147.356 102.818C151.978 104.181 156.637 105.628 161.122 103.728C168.65 100.55 170.581 88.5996 177.353 83.2809C184.19 78.0996 193.444 78.8621 201.734 78.7246C202.706 78.7246 203.706 78.7184 204.725 78.7184C211.981 78.7184 220.172 78.984 225.081 83.2809L225.909 84.109C231.712 89.7028 232.472 100.203 240.137 104C244.281 105.878 249.206 104.078 254.24 102.278C258.094 100.9 262.009 99.5215 265.694 99.7903C269.006 99.9278 272.184 101.168 275.087 103.175C284.687 111.393 298.706 121.409 300.365 134.878C300.919 143.581 292.906 153.597 296.981 160.85C302.99 170.103 317.909 170.034 320.325 182.743C321.112 187.422 321.815 194.062 321.828 200.762V201.125Z" fill="url(#paint4_linear_655_18)"/>
<defs>
<linearGradient id="paint0_linear_655_18" x1="135.472" y1="234.512" x2="264.528" y2="234.512" gradientUnits="userSpaceOnUse">
<stop stop-color="#00EDB0"/>
<stop offset="1" stop-color="#0EC2E3"/>
</linearGradient>
<linearGradient id="paint1_linear_655_18" x1="134.691" y1="-0.000470305" x2="265.31" y2="-0.000470305" gradientUnits="userSpaceOnUse">
<stop stop-color="#00EDB0"/>
<stop offset="1" stop-color="#0EC2E3"/>
</linearGradient>
<linearGradient id="paint2_linear_655_18" x1="135.472" y1="165.487" x2="264.528" y2="165.487" gradientUnits="userSpaceOnUse">
<stop stop-color="#00EDB0"/>
<stop offset="1" stop-color="#0EC2E3"/>
</linearGradient>
<linearGradient id="paint3_linear_655_18" x1="134.691" y1="165.487" x2="265.309" y2="165.487" gradientUnits="userSpaceOnUse">
<stop stop-color="#00EDB0"/>
<stop offset="1" stop-color="#0EC2E3"/>
</linearGradient>
<linearGradient id="paint4_linear_655_18" x1="43.7499" y1="200" x2="356.25" y2="200" gradientUnits="userSpaceOnUse">
<stop stop-color="#00EDB0"/>
<stop offset="1" stop-color="#0EC2E3"/>
</linearGradient>
</defs>
</svg>
